<?xml version="1.0" encoding="utf-8"?>
<!-- Svg Vector Icons : http://www.onlinewebfonts.com/icon -->
<!DOCTYPE svg PUBLIC "-//W3C//DTD SVG 1.1//EN" "http://www.w3.org/Graphics/SVG/1.1/DTD/svg11.dtd">
<svg version="1.1" xmlns="http://www.w3.org/2000/svg" xmlns:xlink="http://www.w3.org/1999/xlink" x="0px" y="0px" viewBox="0 0 256 256" enable-background="new 0 0 256 256" xml:space="preserve">
<metadata> Svg Vector Icons : http://www.onlinewebfonts.com/icon </metadata>
<g> <path fill="#ea5958" d="M30.5,95.2h195v119.1h-195V95.2z"/> <path fill="#ecce83" d="M30.5,165.9h66.6v7.6H30.5V165.9z M158.9,165.9h66.6v7.6h-66.6V165.9z"/> <path fill="#040000" d="M30.5,145.2h21.8v10.5H30.5V145.2z M170.5,151.1h21.8v10.5h-21.8V151.1z M153.7,194.1h21.8v10.5h-21.8 V194.1z M188.3,95.2h21.8v10.5h-21.8V95.2z M203.7,178.4h21.8v10.5h-21.8V178.4z M72,110.1h21.8v10.5H72V110.1z M42.8,90.9h21.8 v10.5H42.8V90.9z M60.6,181.1h21.8v10.5H60.6V181.1z"/> <path fill="#a3a8ac" d="M246,223.6c0,1.1-0.9,2-2,2H12c-1.1,0-2-0.9-2-2v-7.3c0-1.1,0.9-2,2-2H244c1.1,0,2,0.9,2,2V223.6z"/> <path fill="#f5b326" d="M97.1,149.2h61.8v65.1H97.1V149.2z"/> <path fill="#040000" d="M124.2,149.2h7.6v65.1h-7.6V149.2z"/> <path fill="#333e48" d="M225.5,96.2V78.9c0-4.2-3.4-7.6-7.6-7.6H38c-4.2,0-7.6,3.4-7.6,7.6v17.3H225.5z"/> <path fill="#ffffff" d="M85.5,76.7c0,23.5,19,42.5,42.5,42.5c23.5,0,42.5-19,42.5-42.5c0-23.5-19-42.5-42.5-42.5 C104.5,34.1,85.5,53.2,85.5,76.7L85.5,76.7z"/> <path fill="#040000" d="M128,34.1c-23.5,0-42.6,19.1-42.6,42.6c0,1.7,0.1,3.4,0.3,5.1c0.1,0.1,0.1,0.2,0.1,0.3c0.4-2.8,1-5.4,1.9-8 l40.2,40.2l40.2-40.2c0.9,2.6,1.5,5.2,1.9,8c0-0.1,0.1-0.2,0.1-0.2c0.2-1.7,0.3-3.4,0.3-5.1C170.5,53.2,151.5,34.1,128,34.1z"/> <path fill="#333e48" d="M128,37.9c-21.4,0-38.8,17.4-38.8,38.8c0,21.4,17.4,38.8,38.8,38.8c21.4,0,38.8-17.4,38.8-38.8 C166.8,55.3,149.4,37.9,128,37.9z M128,123c-25.5,0-46.3-20.8-46.3-46.3c0-25.5,20.8-46.3,46.3-46.3c25.5,0,46.3,20.8,46.3,46.3 C174.3,102.2,153.5,123,128,123z"/> <path fill="#cf7f34" d="M80.1,63.9l47.9,47.9L176.7,63C149.7,37,106.7,37.3,80.1,63.9L80.1,63.9z"/> <path fill="#ecce83" d="M92.1,75.9l35.8,35.8l36.7-36.7C144.3,55.6,112.1,55.9,92.1,75.9z"/> <path fill="#a23438" d="M118.4,102.2c5.6-5.6,5.6-14.8,0-20.4c-5.6-5.6-14.8-5.6-20.4,0L118.4,102.2z M133.8,76.7 c-5.6,5.6-5.6,14.8,0,20.4c1.6,1.6,3.5,2.7,5.4,3.4l18.4-18.4c-0.7-2-1.8-3.8-3.4-5.4C148.5,71.1,139.4,71.1,133.8,76.7z"/> <path fill="#040000" d="M164.6,75.1c-20.3-19.4-52.5-19.2-72.5,0.8l4.5,4.5c16.9-16.9,44.2-16.9,61.1,0c0.2,0.2,0.5,0.5,0.7,0.8 L164.6,75.1z"/> <path fill="#ffffff" d="M211.2,123.2c0-2.8-2.3-5-5-5h-30.6c-2.8,0-5,2.3-5,5v14.8c0,2.8,2.3,5,5,5h30.6c2.8,0,5-2.3,5-5V123.2 L211.2,123.2z"/> <path fill="#040000" d="M206.2,118.2h-30.6c-2.8,0-5,2.3-5,5v7.2c0-2.8,2.3-5,5-5h30.6c2.8,0,5,2.3,5,5v-7.2 C211.2,120.5,208.9,118.2,206.2,118.2z"/> <path fill="#333e48" d="M175.6,122c-0.7,0-1.3,0.6-1.3,1.3v14.8c0,0.7,0.6,1.3,1.3,1.3h30.6c0.7,0,1.3-0.6,1.3-1.3v-14.8 c0-0.7-0.6-1.3-1.3-1.3H175.6z M206.2,146.9h-30.6c-4.8,0-8.8-4-8.8-8.8v-14.8c0-4.8,4-8.8,8.8-8.8h30.6c4.8,0,8.8,4,8.8,8.8v14.8 C215,142.9,211,146.9,206.2,146.9z"/> <path fill="#ffffff" d="M44.8,123.2c0-2.8,2.3-5,5-5h30.6c2.8,0,5,2.3,5,5v14.8c0,2.8-2.3,5-5,5H49.8c-2.8,0-5-2.3-5-5V123.2z"/> <path fill="#040000" d="M49.8,118.2h30.6c2.8,0,5,2.3,5,5v7.2c0-2.8-2.3-5-5-5H49.8c-2.8,0-5,2.3-5,5v-7.2 C44.8,120.5,47.1,118.2,49.8,118.2z"/> <path fill="#333e48" d="M49.8,122c-0.7,0-1.3,0.6-1.3,1.3v14.8c0,0.7,0.6,1.3,1.3,1.3h30.6c0.7,0,1.3-0.6,1.3-1.3v-14.8 c0-0.7-0.6-1.3-1.3-1.3H49.8z M80.4,146.9H49.8c-4.8,0-8.8-4-8.8-8.8v-14.8c0-4.8,4-8.8,8.8-8.8h30.6c4.8,0,8.8,4,8.8,8.8v14.8 C89.2,142.9,85.3,146.9,80.4,146.9z M67,214.3H189v11.4H67V214.3z"/> <path fill="#1aa565" d="M235.7,214.3c0-14.5-11.8-26.3-26.2-26.3c-14.5,0-26.2,11.8-26.2,26.3H235.7L235.7,214.3z M72,214.3 c0-14.5-11.8-26.3-26.2-26.3s-26.2,11.8-26.2,26.3H72z"/> <path fill="#333e48" d="M162.7,214.3h-7.6v-61.4h-54.3v61.4h-7.6v-65.1c0-2.1,1.7-3.8,3.8-3.8h61.8c2.1,0,3.8,1.7,3.8,3.8 L162.7,214.3L162.7,214.3z"/></g>
</svg>